{
    "asset" : {
        "generator" : "Khronos glTF Blender I/O v1.6.16",
        "version" : "2.0"
    },
    "scene" : 0,
    "scenes" : [
        {
            "name" : "Scene",
            "nodes" : [
                0
            ]
        }
    ],
    "nodes" : [
        {
            "mesh" : 0,
            "name" : "LargeSquareTowerBricks"
        }
    ],
    "materials" : [
        {
            "doubleSided" : true,
            "name" : "LightRock.001",
            "pbrMetallicRoughness" : {}
        },
        {
            "doubleSided" : true,
            "name" : "Black.001",
            "pbrMetallicRoughness" : {}
        },
        {
            "doubleSided" : true,
            "name" : "DarkRock",
            "pbrMetallicRoughness" : {}
        }
    ],
    "meshes" : [
        {
            "name" : "Cube.031",
            "primitives" : [
                {
                    "attributes" : {
                        "POSITION" : 0,
                        "NORMAL" : 1
                    },
                    "indices" : 2,
                    "material" : 0
                },
                {
                    "attributes" : {
                        "POSITION" : 3,
                        "NORMAL" : 4
                    },
                    "indices" : 5,
                    "material" : 1
                },
                {
                    "attributes" : {
                        "POSITION" : 6,
                        "NORMAL" : 7
                    },
                    "indices" : 8,
                    "material" : 2
                }
            ]
        }
    ],
    "accessors" : [
        {
            "bufferView" : 0,
            "componentType" : 5126,
            "count" : 1157,
            "max" : [
                0.6408599019050598,
                4.167694091796875,
                0.6828877329826355
            ],
            "min" : [
                -0.6469288468360901,
                0.0028438568115234375,
                -0.6878787279129028
            ],
            "type" : "VEC3"
        },
        {
            "bufferView" : 1,
            "componentType" : 5126,
            "count" : 1157,
            "type" : "VEC3"
        },
        {
            "bufferView" : 2,
            "componentType" : 5123,
            "count" : 2148,
            "type" : "SCALAR"
        },
        {
            "bufferView" : 3,
            "componentType" : 5126,
            "count" : 48,
            "max" : [
                0.30942168831825256,
                3.3211421966552734,
                0.3316996991634369
            ],
            "min" : [
                -0.3038613200187683,
                1.0557653903961182,
                -0.33394792675971985
            ],
            "type" : "VEC3"
        },
        {
            "bufferView" : 4,
            "componentType" : 5126,
            "count" : 48,
            "type" : "VEC3"
        },
        {
            "bufferView" : 5,
            "componentType" : 5123,
            "count" : 72,
            "type" : "SCALAR"
        },
        {
            "bufferView" : 6,
            "componentType" : 5126,
            "count" : 240,
            "max" : [
                0.43427687883377075,
                0.4265739917755127,
                0.4740465581417084
            ],
            "min" : [
                -0.4310523569583893,
                0.11913561820983887,
                -0.46992433071136475
            ],
            "type" : "VEC3"
        },
        {
            "bufferView" : 7,
            "componentType" : 5126,
            "count" : 240,
            "type" : "VEC3"
        },
        {
            "bufferView" : 8,
            "componentType" : 5123,
            "count" : 360,
            "type" : "SCALAR"
        }
    ],
    "bufferViews" : [
        {
            "buffer" : 0,
            "byteLength" : 13884,
            "byteOffset" : 0
        },
        {
            "buffer" : 0,
            "byteLength" : 13884,
            "byteOffset" : 13884
        },
        {
            "buffer" : 0,
            "byteLength" : 4296,
            "byteOffset" : 27768
        },
        {
            "buffer" : 0,
            "byteLength" : 576,
            "byteOffset" : 32064
        },
        {
            "buffer" : 0,
            "byteLength" : 576,
            "byteOffset" : 32640
        },
        {
            "buffer" : 0,
            "byteLength" : 144,
            "byteOffset" : 33216
        },
        {
            "buffer" : 0,
            "byteLength" : 2880,
            "byteOffset" : 33360
        },
        {
            "buffer" : 0,
            "byteLength" : 2880,
            "byteOffset" : 36240
        },
        {
            "buffer" : 0,
            "byteLength" : 720,
            "byteOffset" : 39120
        }
    ],
    "buffers" : [
        {
            "byteLength" : 39840,
            "uri" : "data:application/octet-stream;base64,"
        }
    ]
}
