{
    "asset" : {
        "generator" : "Khronos glTF Blender I/O v1.6.16",
        "version" : "2.0"
    },
    "scene" : 0,
    "scenes" : [
        {
            "name" : "Scene",
            "nodes" : [
                0
            ]
        }
    ],
    "nodes" : [
        {
            "mesh" : 0,
            "name" : "WallBricks"
        }
    ],
    "materials" : [
        {
            "doubleSided" : true,
            "name" : "LightRock",
            "pbrMetallicRoughness" : {}
        },
        {
            "doubleSided" : true,
            "name" : "DarkRock",
            "pbrMetallicRoughness" : {}
        }
    ],
    "meshes" : [
        {
            "name" : "Cube.038",
            "primitives" : [
                {
                    "attributes" : {
                        "POSITION" : 0,
                        "NORMAL" : 1
                    },
                    "indices" : 2,
                    "material" : 0
                },
                {
                    "attributes" : {
                        "POSITION" : 3,
                        "NORMAL" : 4
                    },
                    "indices" : 5,
                    "material" : 1
                }
            ]
        }
    ],
    "accessors" : [
        {
            "bufferView" : 0,
            "componentType" : 5126,
            "count" : 230,
            "max" : [
                0.7697948813438416,
                1.5626353025436401,
                0.31647053360939026
            ],
            "min" : [
                -0.7662760615348816,
                0.01318448781967163,
                -0.2427423894405365
            ],
            "type" : "VEC3"
        },
        {
            "bufferView" : 1,
            "componentType" : 5126,
            "count" : 230,
            "type" : "VEC3"
        },
        {
            "bufferView" : 2,
            "componentType" : 5123,
            "count" : 414,
            "type" : "SCALAR"
        },
        {
            "bufferView" : 3,
            "componentType" : 5126,
            "count" : 100,
            "max" : [
                0.6301009058952332,
                0.7253825068473816,
                0.2691951096057892
            ],
            "min" : [
                -0.6310112476348877,
                0.15613079071044922,
                0.2427423894405365
            ],
            "type" : "VEC3"
        },
        {
            "bufferView" : 4,
            "componentType" : 5126,
            "count" : 100,
            "type" : "VEC3"
        },
        {
            "bufferView" : 5,
            "componentType" : 5123,
            "count" : 150,
            "type" : "SCALAR"
        }
    ],
    "bufferViews" : [
        {
            "buffer" : 0,
            "byteLength" : 2760,
            "byteOffset" : 0
        },
        {
            "buffer" : 0,
            "byteLength" : 2760,
            "byteOffset" : 2760
        },
        {
            "buffer" : 0,
            "byteLength" : 828,
            "byteOffset" : 5520
        },
        {
            "buffer" : 0,
            "byteLength" : 1200,
            "byteOffset" : 6348
        },
        {
            "buffer" : 0,
            "byteLength" : 1200,
            "byteOffset" : 7548
        },
        {
            "buffer" : 0,
            "byteLength" : 300,
            "byteOffset" : 8748
        }
    ],
    "buffers" : [
        {
            "byteLength" : 9048,
            "uri" : "data:application/octet-stream;base64,"
        }
    ]
}
