{
    "asset" : {
        "generator" : "Khronos glTF Blender I/O v1.6.16",
        "version" : "2.0"
    },
    "scene" : 0,
    "scenes" : [
        {
            "name" : "Scene",
            "nodes" : [
                0
            ]
        }
    ],
    "nodes" : [
        {
            "mesh" : 0,
            "name" : "WallEntranceBricks"
        }
    ],
    "materials" : [
        {
            "doubleSided" : true,
            "name" : "LightRock",
            "pbrMetallicRoughness" : {}
        },
        {
            "doubleSided" : true,
            "name" : "DarkRock",
            "pbrMetallicRoughness" : {}
        }
    ],
    "meshes" : [
        {
            "name" : "Cube.035",
            "primitives" : [
                {
                    "attributes" : {
                        "POSITION" : 0,
                        "NORMAL" : 1
                    },
                    "indices" : 2,
                    "material" : 0
                },
                {
                    "attributes" : {
                        "POSITION" : 3,
                        "NORMAL" : 4
                    },
                    "indices" : 5,
                    "material" : 1
                }
            ]
        }
    ],
    "accessors" : [
        {
            "bufferView" : 0,
            "componentType" : 5126,
            "count" : 282,
            "max" : [
                0.7695450186729431,
                1.5475530624389648,
                0.16301383078098297
            ],
            "min" : [
                -0.7665250897407532,
                -0.0018978118896484375,
                -0.3961986303329468
            ],
            "type" : "VEC3"
        },
        {
            "bufferView" : 1,
            "componentType" : 5126,
            "count" : 282,
            "type" : "VEC3"
        },
        {
            "bufferView" : 2,
            "componentType" : 5123,
            "count" : 540,
            "type" : "SCALAR"
        },
        {
            "bufferView" : 3,
            "componentType" : 5126,
            "count" : 80,
            "max" : [
                0.6931027770042419,
                1.0264467000961304,
                0.11465777456760406
            ],
            "min" : [
                -0.7229015827178955,
                0.1454530954360962,
                0.08928614854812622
            ],
            "type" : "VEC3"
        },
        {
            "bufferView" : 4,
            "componentType" : 5126,
            "count" : 80,
            "type" : "VEC3"
        },
        {
            "bufferView" : 5,
            "componentType" : 5123,
            "count" : 120,
            "type" : "SCALAR"
        }
    ],
    "bufferViews" : [
        {
            "buffer" : 0,
            "byteLength" : 3384,
            "byteOffset" : 0
        },
        {
            "buffer" : 0,
            "byteLength" : 3384,
            "byteOffset" : 3384
        },
        {
            "buffer" : 0,
            "byteLength" : 1080,
            "byteOffset" : 6768
        },
        {
            "buffer" : 0,
            "byteLength" : 960,
            "byteOffset" : 7848
        },
        {
            "buffer" : 0,
            "byteLength" : 960,
            "byteOffset" : 8808
        },
        {
            "buffer" : 0,
            "byteLength" : 240,
            "byteOffset" : 9768
        }
    ],
    "buffers" : [
        {
            "byteLength" : 10008,
            "uri" : "data:application/octet-stream;base64,"
        }
    ]
}
