{
    "asset" : {
        "generator" : "Khronos glTF Blender I/O v1.6.16",
        "version" : "2.0"
    },
    "scene" : 0,
    "scenes" : [
        {
            "name" : "Scene",
            "nodes" : [
                0
            ]
        }
    ],
    "nodes" : [
        {
            "mesh" : 0,
            "name" : "Flowers"
        }
    ],
    "materials" : [
        {
            "doubleSided" : true,
            "name" : "Green",
            "pbrMetallicRoughness" : {
                "baseColorFactor" : [
                    0.08744194358587265,
                    0.15232062339782715,
                    0.05986013635993004,
                    1
                ],
                "metallicFactor" : 0,
                "roughnessFactor" : 0.5
            }
        },
        {
            "doubleSided" : true,
            "name" : "Cyan",
            "pbrMetallicRoughness" : {
                "baseColorFactor" : [
                    0,
                    0.24749420583248138,
                    0.25293979048728943,
                    1
                ],
                "metallicFactor" : 0,
                "roughnessFactor" : 0.5
            }
        },
        {
            "doubleSided" : true,
            "name" : "Yellow",
            "pbrMetallicRoughness" : {
                "baseColorFactor" : [
                    0.44797465205192566,
                    0.3547384738922119,
                    0.11264380812644958,
                    1
                ],
                "metallicFactor" : 0,
                "roughnessFactor" : 0.5
            }
        }
    ],
    "meshes" : [
        {
            "name" : "Plane.029",
            "primitives" : [
                {
                    "attributes" : {
                        "POSITION" : 0,
                        "NORMAL" : 1
                    },
                    "indices" : 2,
                    "material" : 0
                },
                {
                    "attributes" : {
                        "POSITION" : 3,
                        "NORMAL" : 4
                    },
                    "indices" : 5,
                    "material" : 1
                },
                {
                    "attributes" : {
                        "POSITION" : 6,
                        "NORMAL" : 7
                    },
                    "indices" : 8,
                    "material" : 2
                }
            ]
        }
    ],
    "accessors" : [
        {
            "bufferView" : 0,
            "componentType" : 5126,
            "count" : 200,
            "max" : [
                0.08036519587039948,
                0.7136557102203369,
                -0.010468430817127228
            ],
            "min" : [
                -0.258304238319397,
                -0.00936545804142952,
                -0.392190158367157
            ],
            "type" : "VEC3"
        },
        {
            "bufferView" : 1,
            "componentType" : 5126,
            "count" : 200,
            "type" : "VEC3"
        },
        {
            "bufferView" : 2,
            "componentType" : 5123,
            "count" : 306,
            "type" : "SCALAR"
        },
        {
            "bufferView" : 3,
            "componentType" : 5126,
            "count" : 612,
            "max" : [
                0.12963922321796417,
                0.8195818662643433,
                0.11413842439651489
            ],
            "min" : [
                -0.3598490357398987,
                0.5191398859024048,
                -0.4995408356189728
            ],
            "type" : "VEC3"
        },
        {
            "bufferView" : 4,
            "componentType" : 5126,
            "count" : 612,
            "type" : "VEC3"
        },
        {
            "bufferView" : 5,
            "componentType" : 5123,
            "count" : 882,
            "type" : "SCALAR"
        },
        {
            "bufferView" : 6,
            "componentType" : 5126,
            "count" : 36,
            "max" : [
                0.006857335567474365,
                0.733509361743927,
                -0.008481532335281372
            ],
            "min" : [
                -0.25919002294540405,
                0.5329617857933044,
                -0.39643770456314087
            ],
            "type" : "VEC3"
        },
        {
            "bufferView" : 7,
            "componentType" : 5126,
            "count" : 36,
            "type" : "VEC3"
        },
        {
            "bufferView" : 8,
            "componentType" : 5123,
            "count" : 36,
            "type" : "SCALAR"
        }
    ],
    "bufferViews" : [
        {
            "buffer" : 0,
            "byteLength" : 2400,
            "byteOffset" : 0
        },
        {
            "buffer" : 0,
            "byteLength" : 2400,
            "byteOffset" : 2400
        },
        {
            "buffer" : 0,
            "byteLength" : 612,
            "byteOffset" : 4800
        },
        {
            "buffer" : 0,
            "byteLength" : 7344,
            "byteOffset" : 5412
        },
        {
            "buffer" : 0,
            "byteLength" : 7344,
            "byteOffset" : 12756
        },
        {
            "buffer" : 0,
            "byteLength" : 1764,
            "byteOffset" : 20100
        },
        {
            "buffer" : 0,
            "byteLength" : 432,
            "byteOffset" : 21864
        },
        {
            "buffer" : 0,
            "byteLength" : 432,
            "byteOffset" : 22296
        },
        {
            "buffer" : 0,
            "byteLength" : 72,
            "byteOffset" : 22728
        }
    ],
    "buffers" : [
        {
            "byteLength" : 22800,
            "uri" : "data:application/octet-stream;base64,"
        }
    ]
}
