{
    "asset" : {
        "generator" : "Khronos glTF Blender I/O v1.6.16",
        "version" : "2.0"
    },
    "scene" : 0,
    "scenes" : [
        {
            "name" : "Scene",
            "nodes" : [
                0
            ]
        }
    ],
    "nodes" : [
        {
            "mesh" : 0,
            "name" : "Grass"
        }
    ],
    "materials" : [
        {
            "doubleSided" : true,
            "name" : "Green",
            "pbrMetallicRoughness" : {
                "baseColorFactor" : [
                    0.08744194358587265,
                    0.15232062339782715,
                    0.05986013635993004,
                    1
                ],
                "metallicFactor" : 0,
                "roughnessFactor" : 0.5
            }
        }
    ],
    "meshes" : [
        {
            "name" : "Plane.005",
            "primitives" : [
                {
                    "attributes" : {
                        "POSITION" : 0,
                        "NORMAL" : 1
                    },
                    "indices" : 2,
                    "material" : 0
                }
            ]
        }
    ],
    "accessors" : [
        {
            "bufferView" : 0,
            "componentType" : 5126,
            "count" : 408,
            "max" : [
                0.17688614130020142,
                0.996920645236969,
                0.16302455961704254
            ],
            "min" : [
                -0.19695161283016205,
                -0.015862302854657173,
                -0.16419224441051483
            ],
            "type" : "VEC3"
        },
        {
            "bufferView" : 1,
            "componentType" : 5126,
            "count" : 408,
            "type" : "VEC3"
        },
        {
            "bufferView" : 2,
            "componentType" : 5123,
            "count" : 576,
            "type" : "SCALAR"
        }
    ],
    "bufferViews" : [
        {
            "buffer" : 0,
            "byteLength" : 4896,
            "byteOffset" : 0
        },
        {
            "buffer" : 0,
            "byteLength" : 4896,
            "byteOffset" : 4896
        },
        {
            "buffer" : 0,
            "byteLength" : 1152,
            "byteOffset" : 9792
        }
    ],
    "buffers" : [
        {
            "byteLength" : 10944,
            "uri" : "data:application/octet-stream;base64,"
        }
    ]
}
