{
    "asset" : {
        "generator" : "Khronos glTF Blender I/O v1.6.16",
        "version" : "2.0"
    },
    "scene" : 0,
    "scenes" : [
        {
            "name" : "Scene",
            "nodes" : [
                0
            ]
        }
    ],
    "nodes" : [
        {
            "mesh" : 0,
            "name" : "WoodLog_Moss"
        }
    ],
    "materials" : [
        {
            "doubleSided" : true,
            "name" : "Wood",
            "pbrMetallicRoughness" : {
                "baseColorFactor" : [
                    0.15292617678642273,
                    0.07036010175943375,
                    0.05951124429702759,
                    1
                ],
                "metallicFactor" : 0,
                "roughnessFactor" : 0.5
            }
        },
        {
            "doubleSided" : true,
            "name" : "Green",
            "pbrMetallicRoughness" : {
                "baseColorFactor" : [
                    0.08744194358587265,
                    0.15232062339782715,
                    0.05986013635993004,
                    1
                ],
                "metallicFactor" : 0,
                "roughnessFactor" : 0.5
            }
        },
        {
            "doubleSided" : true,
            "name" : "Mushroom_Top",
            "pbrMetallicRoughness" : {
                "baseColorFactor" : [
                    0.15232135355472565,
                    0.1101718321442604,
                    0.09684429317712784,
                    1
                ],
                "metallicFactor" : 0,
                "roughnessFactor" : 0.5
            }
        },
        {
            "doubleSided" : true,
            "name" : "Mushroom_Bottom",
            "pbrMetallicRoughness" : {
                "baseColorFactor" : [
                    0.3757456839084625,
                    0.26797693967819214,
                    0.2341083288192749,
                    1
                ],
                "metallicFactor" : 0,
                "roughnessFactor" : 0.5
            }
        },
        {
            "doubleSided" : true,
            "name" : "DarkGreen",
            "pbrMetallicRoughness" : {
                "baseColorFactor" : [
                    0.05316007137298584,
                    0.09083576500415802,
                    0.03697298839688301,
                    1
                ],
                "metallicFactor" : 0,
                "roughnessFactor" : 0.5
            }
        }
    ],
    "meshes" : [
        {
            "name" : "Cylinder.011",
            "primitives" : [
                {
                    "attributes" : {
                        "POSITION" : 0,
                        "NORMAL" : 1
                    },
                    "indices" : 2,
                    "material" : 0
                },
                {
                    "attributes" : {
                        "POSITION" : 3,
                        "NORMAL" : 4
                    },
                    "indices" : 5,
                    "material" : 1
                },
                {
                    "attributes" : {
                        "POSITION" : 6,
                        "NORMAL" : 7
                    },
                    "indices" : 8,
                    "material" : 2
                },
                {
                    "attributes" : {
                        "POSITION" : 9,
                        "NORMAL" : 10
                    },
                    "indices" : 11,
                    "material" : 3
                },
                {
                    "attributes" : {
                        "POSITION" : 12,
                        "NORMAL" : 13
                    },
                    "indices" : 14,
                    "material" : 4
                }
            ]
        }
    ],
    "accessors" : [
        {
            "bufferView" : 0,
            "componentType" : 5126,
            "count" : 436,
            "max" : [
                0.27137354016304016,
                0.6869414448738098,
                1.1720974445343018
            ],
            "min" : [
                -0.5663121342658997,
                -0.001381935435347259,
                -1.4981977939605713
            ],
            "type" : "VEC3"
        },
        {
            "bufferView" : 1,
            "componentType" : 5126,
            "count" : 436,
            "type" : "VEC3"
        },
        {
            "bufferView" : 2,
            "componentType" : 5123,
            "count" : 660,
            "type" : "SCALAR"
        },
        {
            "bufferView" : 3,
            "componentType" : 5126,
            "count" : 104,
            "max" : [
                0.27137354016304016,
                0.5331196188926697,
                1.1701363325119019
            ],
            "min" : [
                -0.30253204703330994,
                0.18923138082027435,
                -1.4981977939605713
            ],
            "type" : "VEC3"
        },
        {
            "bufferView" : 4,
            "componentType" : 5126,
            "count" : 104,
            "type" : "VEC3"
        },
        {
            "bufferView" : 5,
            "componentType" : 5123,
            "count" : 156,
            "type" : "SCALAR"
        },
        {
            "bufferView" : 6,
            "componentType" : 5126,
            "count" : 336,
            "max" : [
                0.33032360672950745,
                0.6311942934989929,
                0.8457203507423401
            ],
            "min" : [
                -0.3530794382095337,
                0.2891286611557007,
                -1.4802604913711548
            ],
            "type" : "VEC3"
        },
        {
            "bufferView" : 7,
            "componentType" : 5126,
            "count" : 336,
            "type" : "VEC3"
        },
        {
            "bufferView" : 8,
            "componentType" : 5123,
            "count" : 504,
            "type" : "SCALAR"
        },
        {
            "bufferView" : 9,
            "componentType" : 5126,
            "count" : 264,
            "max" : [
                0.27508676052093506,
                0.5933365225791931,
                0.7950217723846436
            ],
            "min" : [
                -0.294515997171402,
                0.2535618245601654,
                -1.4272546768188477
            ],
            "type" : "VEC3"
        },
        {
            "bufferView" : 10,
            "componentType" : 5126,
            "count" : 264,
            "type" : "VEC3"
        },
        {
            "bufferView" : 11,
            "componentType" : 5123,
            "count" : 396,
            "type" : "SCALAR"
        },
        {
            "bufferView" : 12,
            "componentType" : 5126,
            "count" : 126,
            "max" : [
                0.32370778918266296,
                0.6323356628417969,
                0.8362227082252502
            ],
            "min" : [
                -0.3530794382095337,
                0.311744749546051,
                -1.4655888080596924
            ],
            "type" : "VEC3"
        },
        {
            "bufferView" : 13,
            "componentType" : 5126,
            "count" : 126,
            "type" : "VEC3"
        },
        {
            "bufferView" : 14,
            "componentType" : 5123,
            "count" : 126,
            "type" : "SCALAR"
        }
    ],
    "bufferViews" : [
        {
            "buffer" : 0,
            "byteLength" : 5232,
            "byteOffset" : 0
        },
        {
            "buffer" : 0,
            "byteLength" : 5232,
            "byteOffset" : 5232
        },
        {
            "buffer" : 0,
            "byteLength" : 1320,
            "byteOffset" : 10464
        },
        {
            "buffer" : 0,
            "byteLength" : 1248,
            "byteOffset" : 11784
        },
        {
            "buffer" : 0,
            "byteLength" : 1248,
            "byteOffset" : 13032
        },
        {
            "buffer" : 0,
            "byteLength" : 312,
            "byteOffset" : 14280
        },
        {
            "buffer" : 0,
            "byteLength" : 4032,
            "byteOffset" : 14592
        },
        {
            "buffer" : 0,
            "byteLength" : 4032,
            "byteOffset" : 18624
        },
        {
            "buffer" : 0,
            "byteLength" : 1008,
            "byteOffset" : 22656
        },
        {
            "buffer" : 0,
            "byteLength" : 3168,
            "byteOffset" : 23664
        },
        {
            "buffer" : 0,
            "byteLength" : 3168,
            "byteOffset" : 26832
        },
        {
            "buffer" : 0,
            "byteLength" : 792,
            "byteOffset" : 30000
        },
        {
            "buffer" : 0,
            "byteLength" : 1512,
            "byteOffset" : 30792
        },
        {
            "buffer" : 0,
            "byteLength" : 1512,
            "byteOffset" : 32304
        },
        {
            "buffer" : 0,
            "byteLength" : 252,
            "byteOffset" : 33816
        }
    ],
    "buffers" : [
        {
            "byteLength" : 34068,
            "uri" : "data:application/octet-stream;base64,"
        }
    ]
}
